<svg width="22" height="22" viewBox="0 0 22 22" fill="none" xmlns="http://www.w3.org/2000/svg">
<path d="M17.0476 8.82862L17.0476 8.82862V8.82381C17.0476 4.30238 13.3452 0.6 8.82381 0.6C4.30238 0.6 0.6 4.30238 0.6 8.82381C0.6 13.3452 4.30238 17.0476 8.82381 17.0476C13.3496 17.0476 16.9932 13.3419 17.0476 8.82862ZM2.0736 8.82381C2.0736 5.1069 5.10691 2.07357 8.82381 2.07357C12.5351 2.07357 15.5237 5.10184 15.5741 8.82646C15.5726 12.5421 12.5398 15.574 8.82381 15.574C5.10691 15.574 2.0736 12.5407 2.0736 8.82381Z" fill="#BF2F38" stroke="#BF2F38" stroke-width="0.8"/>
<path d="M18.1785 20.8684L18.1913 20.8812L18.2052 20.8928C18.5699 21.1967 19.0201 21.4 19.4976 21.4C19.9362 21.4 20.4728 21.2216 20.7797 20.8534C21.491 20.126 21.4861 18.9513 20.7649 18.2301L15.5539 13.0191C15.4266 12.8539 15.2369 12.7632 15.0352 12.7632C14.84 12.7632 14.6625 12.8465 14.5266 12.9712C14.3584 13.0986 14.266 13.2899 14.266 13.4936C14.266 13.7019 14.3608 13.89 14.4997 14.029L19.7329 19.2621C19.8876 19.4168 19.8876 19.6817 19.7329 19.8363L19.7201 19.8492L19.7084 19.8631C19.6224 19.9663 19.3809 20.0068 19.2105 19.8363L13.7404 14.3663C13.6131 14.2011 13.4235 14.1104 13.2217 14.1104C13.0265 14.1104 12.849 14.1936 12.7131 14.3184C12.545 14.4457 12.4525 14.637 12.4525 14.8407C12.4525 15.049 12.5473 15.2372 12.6863 15.3761L18.1785 20.8684Z" fill="#BF2F38" stroke="#BF2F38" stroke-width="0.8"/>
</svg>
